<?xml version="1.0" encoding="UTF-8" standalone="no"?>
<svg
   version="1.1"
   viewBox="0 0 300 325.68"
   id="svg19"
   sodipodi:docname="logo.svg"
   inkscape:export-filename="logo.png"
   inkscape:export-xdpi="96"
   inkscape:export-ydpi="96"
   inkscape:version="1.3.2 (091e20ef0f, 2023-11-25, custom)"
   xmlns:inkscape="http://www.inkscape.org/namespaces/inkscape"
   xmlns:sodipodi="http://sodipodi.sourceforge.net/DTD/sodipodi-0.dtd"
   xmlns="http://www.w3.org/2000/svg"
   xmlns:svg="http://www.w3.org/2000/svg">
  <sodipodi:namedview
     id="namedview19"
     pagecolor="#505050"
     bordercolor="#eeeeee"
     borderopacity="1"
     inkscape:showpageshadow="0"
     inkscape:pageopacity="0"
     inkscape:pagecheckerboard="0"
     inkscape:deskcolor="#505050"
     inkscape:zoom="1.0433333"
     inkscape:cx="149.52077"
     inkscape:cy="162.9393"
     inkscape:window-width="1920"
     inkscape:window-height="1058"
     inkscape:window-x="0"
     inkscape:window-y="0"
     inkscape:window-maximized="0"
     inkscape:current-layer="svg19" />
  <defs
     id="defs1">
    <style
       id="style1">
      .cls-1 {
        fill: #000;
      }

      .cls-1, .cls-2, .cls-3, .cls-4 {
        stroke-width: 0px;
      }

      .cls-2 {
        fill: #ec7700;
      }

      .cls-3 {
        fill: #fff;
      }

      .cls-4 {
        fill: #6e605e;
      }
    </style>
  </defs>
  <g
     id="Layer_2"
     data-name="Layer 2"
     transform="translate(-25.180002,-49.91888)"
     inkscape:export-filename="Layer_2.svg"
     inkscape:export-xdpi="96"
     inkscape:export-ydpi="96">
    <g
       id="g10"
       inkscape:export-filename="g10.png"
       inkscape:export-xdpi="96"
       inkscape:export-ydpi="96"
       transform="translate(24.200002,-48.48118)">
      <g
         id="g6">
        <g
           id="g2">
          <path
             class="cls-2"
             d="m 100.75,255.44 c -0.86,-1.51 -2.8,-2.46 -4.83,-2.46 -4.43,-0.03 -7.91,2.71 -7.91,7.94 0,5.23 3.33,8.1 7.82,8.07 1.69,-0.03 4.06,-0.89 4.93,-2.68 l 0.18,2.22 h 3.54 v -15.18 h -3.6 l -0.12,2.09 z m -4.5,10.1 c -2.49,0 -4.5,-1.72 -4.5,-4.62 0,-2.9 2,-4.59 4.5,-4.59 5.91,0 5.91,9.21 0,9.21 z"
             id="path1" />
          <rect
             class="cls-2"
             x="106.97"
             y="247"
             width="3.73"
             height="21.52"
             id="rect2" />
          <polygon
             class="cls-2"
             points="111.97,253.31 118.47,268.59 122.53,268.59 129,253.31 124.9,253.31 122.81,258.39 120.5,264.74 118.16,258.33 116.07,253.31 "
             id="polygon2" />
          <path
             class="cls-2"
             d="m 141.28,253.34 -0.12,2.09 c -0.86,-1.51 -2.8,-2.46 -4.83,-2.46 -4.43,-0.03 -7.91,2.71 -7.91,7.94 0,5.23 3.33,8.1 7.82,8.07 1.69,-0.03 4.06,-0.89 4.93,-2.68 l 0.18,2.22 h 3.54 v -15.18 h -3.6 z m -4.62,12.2 c -2.49,0 -4.5,-1.72 -4.5,-4.62 0,-2.9 2,-4.59 4.5,-4.59 5.91,0 5.91,9.21 0,9.21 z"
             id="path2" />
        </g>
        <g
           id="g5">
          <path
             class="cls-3"
             d="m 154.49,252.94 c -1.85,0.03 -3.5,0.69 -4.64,1.86 l -0.36,0.38 v -1.97 h -2.01 v 15.42 h 2.04 v -8.55 c 0,-2.95 2.07,-5.1 4.92,-5.13 h 0.07 c 3.14,0 4.93,1.77 4.93,4.86 v 8.82 h 2.04 v -8.85 c 0,-4.15 -2.75,-6.84 -7,-6.84 z"
             id="path3" />
          <path
             class="cls-3"
             d="m 170.85,252.94 c -4.54,0 -7.83,3.37 -7.83,8.01 0,4.64 3.22,7.89 7.83,7.89 4.61,0 7.83,-3.25 7.83,-7.89 0,-4.64 -3.29,-8.01 -7.83,-8.01 z m 0,13.89 c -3.43,0 -5.82,-2.42 -5.82,-5.88 0,-3.46 2.45,-6.06 5.82,-6.06 3.37,0 5.82,2.55 5.82,6.06 0,3.51 -2.39,5.88 -5.82,5.88 z"
             id="path4" />
          <path
             class="cls-3"
             d="m 187.23,252.94 c -1.85,0.03 -3.5,0.69 -4.64,1.86 l -0.36,0.38 v -1.97 h -2.01 v 15.42 h 2.04 v -8.55 c 0,-2.95 2.07,-5.1 4.92,-5.13 h 0.07 c 3.14,0 4.93,1.77 4.93,4.86 v 8.82 h 2.04 v -8.85 c 0,-4.15 -2.75,-6.84 -7,-6.84 z"
             id="path5" />
        </g>
      </g>
      <g
         id="g9">
        <g
           id="g7">
          <polygon
             class="cls-3"
             points="205.95,254.45 206.9,253.03 198.52,253.03 199.46,254.45 "
             id="polygon6" />
          <path
             class="cls-3"
             d="m 200.41,255.75 c 0.51,0.86 1.4,1.37 2.39,1.37 0.99,0 1.88,-0.51 2.39,-1.37 l 0.09,-0.15 h -4.96 z"
             id="path6" />
        </g>
        <g
           id="g8">
          <path
             class="cls-2"
             d="m 202.8,226.73 c -6.14,0 -11.14,5.04 -11.14,11.24 0,2.13 0.64,4.22 1.96,6.37 l 2.94,4.8 0.81,1.33 0.86,1.41 v 0 c 0,0 2.39,0.01 2.39,0.01 1.5,0 2.79,-0.47 3.78,-1.3 0.39,-0.32 0.72,-0.7 1.01,-1.13 0.39,-0.58 0.76,-1.2 0.92,-1.93 0.01,-0.05 0.02,-0.09 0.03,-0.14 0.01,-0.06 0.02,-0.12 0.04,-0.19 0.06,-0.38 0.1,-0.77 0.1,-1.18 -0.03,-1.15 -0.49,-2.08 -0.83,-2.87 -0.32,-0.73 -0.62,-1.16 -0.62,-1.9 0,-0.53 0.35,-0.76 1.18,-1.31 0.81,-0.53 1.72,-1.13 1.72,-2.16 0,-1.29 -1.2,-1.82 -2.55,-2.34 -0.16,-0.06 -0.31,-0.12 -0.46,-0.18 -0.28,0.44 -0.63,0.81 -1.01,1.13 0.33,0.14 0.66,0.27 0.97,0.38 0.73,0.28 1.63,0.7 1.63,1.01 0,0.26 -0.62,0.67 -1.08,0.97 -0.9,0.59 -1.82,1.17 -1.82,2.5 0,1.04 0.38,1.64 0.74,2.47 0.31,0.71 0.71,1.48 0.75,2.29 0,0.38 -0.04,0.77 -0.12,1.16 -0.15,0.69 -0.53,1.32 -1,1.88 -0.7,0.84 -1.78,1.42 -3.37,1.42 h -1.59 l -0.82,-1.35 -3.39,-5.54 c -1.18,-1.93 -1.75,-3.77 -1.75,-5.63 0,-5.42 4.36,-9.83 9.72,-9.83 5.36,0 9.72,4.41 9.72,9.83 0,1.87 -0.56,3.73 -1.67,5.52 -1.62,2.6 -2.74,4.41 -3.51,5.65 -0.13,0.2 -0.24,0.39 -0.35,0.57 l -0.47,0.76 -0.03,0.05 c -0.58,0.93 -0.74,1.2 -0.75,1.22 l -0.09,0.15 h 1.66 l 0.88,-1.42 0.41,-0.66 c 0.13,-0.21 0.27,-0.44 0.42,-0.68 0.74,-1.19 1.72,-2.78 3.04,-4.9 1.25,-2.02 1.89,-4.13 1.89,-6.26 0,-6.2 -5,-11.24 -11.14,-11.24 z"
             id="path7" />
          <path
             class="cls-2"
             d="m 204.82,232.52 c 0,0 0,-0.02 0,-0.02 0,0 0,-0.02 0,-0.02 v 0 c 0,-0.25 -0.02,-0.5 -0.07,-0.73 -0.01,-0.08 -0.06,-0.23 -0.06,-0.23 -0.05,-0.19 -0.12,-0.37 -0.2,-0.53 -0.36,-0.69 -0.96,-1.08 -1.64,-1.08 -0.79,0 -1.53,0.52 -1.92,1.36 -0.41,0.88 -0.48,2.26 0.56,3.51 0.04,0.05 0.09,0.1 0.14,0.14 -0.36,0.16 -0.77,0.31 -1.22,0.46 -1.28,0.44 -2.73,1 -2.73,2.46 0,0.87 0.72,1.45 1.26,1.82 l 0.79,-1.18 c -0.62,-0.42 -0.63,-0.56 -0.63,-0.7 0,-0.41 0.56,-0.65 1.76,-1.06 1.13,-0.39 2.55,-0.87 3.35,-2.06 v 0 c 0,0 0,-0.02 0.01,-0.03 0.33,-0.5 0.54,-1.12 0.58,-1.91 0,-0.07 0.01,-0.15 0.01,-0.22 z m -2.61,-0.65 c 0.15,-0.33 0.41,-0.54 0.64,-0.54 0.19,0 0.32,0.2 0.39,0.33 0.08,0.15 0.13,0.34 0.16,0.55 0,0.12 0,0.23 0,0.34 0,0.01 0,0.02 0,0.03 -0.02,0.35 -0.09,0.67 -0.21,0.97 -0.01,0.03 -0.02,0.05 -0.04,0.08 -0.02,0.05 -0.05,0.1 -0.07,0.15 -0.03,0.06 -0.07,0.13 -0.11,0.19 -0.04,0.06 -0.09,0.11 -0.14,0.16 -0.09,-0.08 -0.18,-0.17 -0.25,-0.26 -0.62,-0.74 -0.59,-1.52 -0.37,-2.01 z"
             id="path8" />
        </g>
      </g>
    </g>
  </g>
  <g
     id="Layer_1"
     data-name="Layer 1"
     inkscape:export-filename="logo_main.png"
     inkscape:export-xdpi="96"
     inkscape:export-ydpi="96">
    <g
       id="g19">
      <g
         id="g15">
        <g
           id="g11">
          <path
             class="cls-2"
             d="M100.75,89.68c-.86-1.51-2.8-2.46-4.83-2.46-4.43-.03-7.91,2.71-7.91,7.94s3.33,8.1,7.82,8.07c1.69-.03,4.06-.89,4.93-2.68l.18,2.22h3.54v-15.18h-3.6l-.12,2.09ZM96.25,99.78c-2.49,0-4.5-1.72-4.5-4.62s2-4.59,4.5-4.59c5.91,0,5.91,9.21,0,9.21Z"
             id="path10" />
          <rect
             class="cls-2"
             x="106.97"
             y="81.24"
             width="3.73"
             height="21.52"
             id="rect10" />
          <polygon
             class="cls-2"
             points="124.9 87.55 122.81 92.63 120.5 98.98 118.16 92.57 116.07 87.55 111.97 87.55 118.47 102.82 122.53 102.82 129 87.55 124.9 87.55"
             id="polygon10" />
          <path
             class="cls-2"
             d="M141.28,87.58l-.12,2.09c-.86-1.51-2.8-2.46-4.83-2.46-4.43-.03-7.91,2.71-7.91,7.94s3.33,8.1,7.82,8.07c1.69-.03,4.06-.89,4.93-2.68l.18,2.22h3.54v-15.18h-3.6ZM136.66,99.78c-2.49,0-4.5-1.72-4.5-4.62s2-4.59,4.5-4.59c5.91,0,5.91,9.21,0,9.21Z"
             id="path11" />
        </g>
        <g
           id="g14">
          <path
             class="cls-4"
             d="M154.49,87.18c-1.85.03-3.5.69-4.64,1.86l-.36.38v-1.97h-2.01v15.42h2.04v-8.55c0-2.95,2.07-5.1,4.92-5.13h.07c3.14,0,4.93,1.77,4.93,4.86v8.82h2.04v-8.85c0-4.15-2.75-6.84-7-6.84Z"
             id="path12" />
          <path
             class="cls-4"
             d="M170.85,87.18c-4.54,0-7.83,3.37-7.83,8.01s3.22,7.89,7.83,7.89,7.83-3.25,7.83-7.89-3.29-8.01-7.83-8.01ZM170.85,101.07c-3.43,0-5.82-2.42-5.82-5.88s2.45-6.06,5.82-6.06,5.82,2.55,5.82,6.06-2.39,5.88-5.82,5.88Z"
             id="path13" />
          <path
             class="cls-4"
             d="M187.23,87.18c-1.85.03-3.5.69-4.64,1.86l-.36.38v-1.97h-2.01v15.42h2.04v-8.55c0-2.95,2.07-5.1,4.92-5.13h.07c3.14,0,4.93,1.77,4.93,4.86v8.82h2.04v-8.85c0-4.15-2.75-6.84-7-6.84Z"
             id="path14" />
        </g>
      </g>
      <g
         id="g18">
        <g
           id="g16">
          <polygon
             class="cls-4"
             points="199.46 88.69 205.95 88.69 206.9 87.27 198.52 87.27 199.46 88.69"
             id="polygon15" />
          <path
             class="cls-4"
             d="M200.41,89.99c.51.86,1.4,1.37,2.39,1.37s1.88-.51,2.39-1.37l.09-.15h-4.96l.09.15Z"
             id="path15" />
        </g>
        <g
           id="g17">
          <path
             class="cls-2"
             d="M202.8,60.96c-6.14,0-11.14,5.04-11.14,11.24,0,2.13.64,4.22,1.96,6.37l2.94,4.8.81,1.33.86,1.41h0s2.39.01,2.39.01c1.5,0,2.79-.47,3.78-1.3.39-.32.72-.7,1.01-1.13.39-.58.76-1.2.92-1.93.01-.05.02-.09.03-.14.01-.06.02-.12.04-.19.06-.38.1-.77.1-1.18-.03-1.15-.49-2.08-.83-2.87-.32-.73-.62-1.16-.62-1.9,0-.53.35-.76,1.18-1.31.81-.53,1.72-1.13,1.72-2.16,0-1.29-1.2-1.82-2.55-2.34-.16-.06-.31-.12-.46-.18-.28.44-.63.81-1.01,1.13.33.14.66.27.97.38.73.28,1.63.7,1.63,1.01,0,.26-.62.67-1.08.97-.9.59-1.82,1.17-1.82,2.5,0,1.04.38,1.64.74,2.47.31.71.71,1.48.75,2.29,0,.38-.04.77-.12,1.16-.15.69-.53,1.32-1,1.88-.7.84-1.78,1.42-3.37,1.42h-1.59l-.82-1.35-3.39-5.54c-1.18-1.93-1.75-3.77-1.75-5.63,0-5.42,4.36-9.83,9.72-9.83s9.72,4.41,9.72,9.83c0,1.87-.56,3.73-1.67,5.52-1.62,2.6-2.74,4.41-3.51,5.65-.13.2-.24.39-.35.57l-.47.76-.03.05c-.58.93-.74,1.2-.75,1.22l-.09.15h1.66l.88-1.42.41-.66c.13-.21.27-.44.42-.68.74-1.19,1.72-2.78,3.04-4.9,1.25-2.02,1.89-4.13,1.89-6.26,0-6.2-5-11.24-11.14-11.24Z"
             id="path16" />
          <path
             class="cls-2"
             d="M204.82,66.76s0-.02,0-.02c0,0,0-.02,0-.02h0c0-.25-.02-.5-.07-.73-.01-.08-.06-.23-.06-.23-.05-.19-.12-.37-.2-.53-.36-.69-.96-1.08-1.64-1.08-.79,0-1.53.52-1.92,1.36-.41.88-.48,2.26.56,3.51.04.05.09.1.14.14-.36.16-.77.31-1.22.46-1.28.44-2.73,1-2.73,2.46,0,.87.72,1.45,1.26,1.82l.79-1.18c-.62-.42-.63-.56-.63-.7,0-.41.56-.65,1.76-1.06,1.13-.39,2.55-.87,3.35-2.06h0s0-.02.01-.03c.33-.5.54-1.12.58-1.91,0-.07.01-.15.01-.22ZM202.21,66.11c.15-.33.41-.54.64-.54.19,0,.32.2.39.33.08.15.13.34.16.55,0,.12,0,.23,0,.34,0,.01,0,.02,0,.03-.02.35-.09.67-.21.97-.01.03-.02.05-.04.08-.02.05-.05.1-.07.15-.03.06-.07.13-.11.19-.04.06-.09.11-.14.16-.09-.08-.18-.17-.25-.26-.62-.74-.59-1.52-.37-2.01Z"
             id="path17" />
        </g>
      </g>
    </g>
  </g>
</svg>
